<svg xmlns="http://www.w3.org/2000/svg" x="0" y="0" version="1" viewBox="0 0 211.26 211.256" xml:space="preserve">
  <g fill-rule="evenodd" clip-rule="evenodd">
    <g fill="#A3772B">
      <path d="M97.904,117.319c5.417-0.48,6.185,0.973,8.891,0.879 c2.881-0.097,3.92-1.936,8.448-1.459c-4.067,1.387-7.751,6.346-11.141,4.35C102.448,119.839,100.204,118.307,97.904,117.319 M99.536,45.042c2.203-3.295-3.731-4.557,5.087-10.896c3.449,5.385-1.745,5.194,1.196,7.792c5.454-4.717,12.6-4.61,20.173,1.073 c-4.416,0.169-11.63-1.692-13.504-1.014c6.656,0.766,7.971,2.294,11.062,2.3c-0.665,1.66,3.505,2.561,3.352,5.746 c-3.267-1.582-6.029-1.899-9.804-2.464c1.98,2.416,6.471,1.459,8.991,3.7c1.123,0.998,1.39,3.019,1.095,4.124 c-0.502,1.883,1.252,2.598,0.26,3.634c-1.851-2.46-2.752-1.202-3.778-2.307c-1.343-1.444-2.944-2.382-4.287-1.795 c4.858,3.888,5.903,3.967,3.891,10.902c-2.297-0.584-2.558-7.761-7.654-7.836c2.376,1.306,3.666,3.436,4.259,7.469 c0.562,1.908,1.381,2.947,0.254,2.73c-0.816-0.154,0.166,3.016-2.231,4.23c-0.574-2.762-2.168-4.255-3.254-6 c-0.028,2.828,0.709,4.641-0.082,6.961c-2.231-2.872-2.429-1.431-2.881,0.521c-4.883-2.78-4.425-10.887-6-8.335l1.993,42.272 c4.582,2.074,6.399-0.992,12.76,0.075c1.958,0.329,7.4-1.87,8.357,1.048c-7.061,1.246-3.694,4.265-7.45,3.477 c-1.987-0.634-5.658-0.282-5.709,0.606c2.049,0.577,4.058,1.528,4.641,2.36c-4.061-0.625-7.152-0.439-9.619,0.734 c-1.553,0.741-2.47-0.217-3.954-0.308c-0.675-0.044-1.698,0.709-2.548,0.706c-3.308-0.144-5.027-2.344-7.412-0.643 c-0.935,0.662-1.45-1.233-3.521-1.252c2.382-1.381,5.498-1.227,8.847-1.13c-0.289-2.178-9.236-0.85-12.198,0.791 c-3.562-5.332-10.428-2.291-10.679-4.579c3.69-0.336,7.381-0.929,11.075-1.265c2.871-0.264,5.743,1.503,8.617-0.025 l1.409-44.629c-0.609,1.889-1.729,2.765-1.83,5.668c-2.595,0.954-0.681,2.46-1.516,3.063c-1.073,0.772-2.476,1.312-3.399,3.374 c0.101-4.453-2.087-8.91,0.305-13.363c-1.754,0.989-2.492,2.228-3.738,4.485l-0.458-4.233c-1.679,1.735-2.338,6.518-3.76,4.45 l-2.291,4.419l-0.025-4.751c-2.79-1.149-0.389-3.603,0.022-5.73c0.515-2.668,1.541-3.816,6.126-5.724 c-3.7-1.375-3.408,1.309-8.097,2.219c0.603-2.567,2.73-3.358,5.366-4.651c-1.952-0.891-4.67,2.275-8.913,1.892 c0.273-3,2.134-4.604,4.127-5.734c1.987-1.127,3.088-1.779,5.903-0.847c-0.615-1.77-3.267-1.255-6.424-1.757 c2.388-2.715,5.793-3.402,8.693-1.805c-2.234-2.746-3.449-3.461-6.7-4.431c4.274-1.415,7.168-1.622,9.236-1.491 C98.456,39.221,97.825,43.096,99.536,45.042"/>
      <path d="M32.536,107.707c32.92-4.864,59.843,13.403,86.235,43.891 c0.05,0.053,0.101,0.104,0.154,0.157c1.164-1.07,2.275-2.081,3.314-2.715l0.185-0.129v0.022c0.458-0.242,0.985-0.38,1.544-0.38 c1.761,0,3.198,1.368,3.198,3.044c0,1.676-1.437,3.044-3.198,3.044c-0.508,0-0.992-0.113-1.418-0.317 c-0.333,0.176-0.703,0.405-1.098,0.672c2.131,3.072,4.23,6.487,6.945,7.441c3.989,1.397,7.977,0.59,7.312,5.966 c-0.304,3.531-9.258,7.569-15.666-1.076c-1.651-2.683-3.314-5.197-4.98-7.56c-1.918,1.34-3.785,2.401-5.213,2.476 c-1.833,0-3.323-1.422-3.323-3.166c0-1.742,1.491-3.166,3.323-3.166c0.643,0,1.246,0.176,1.757,0.48 c0.292-0.019,0.587-0.069,0.882-0.144c-9.365-12.374-19.19-20.69-30.585-29.634C66.463,114.9,50.01,108.596,32.536,107.707"/>
      <path d="M174.447,107.707c-32.92-4.864-59.843,13.403-86.235,43.891 c-0.05,0.053-0.104,0.104-0.154,0.157c-1.161-1.07-2.275-2.081-3.314-2.715l-0.185-0.129v0.022 c-0.458-0.242-0.985-0.38-1.544-0.38c-1.761,0-3.198,1.368-3.198,3.044c0,1.676,1.437,3.044,3.198,3.044 c0.508,0,0.992-0.113,1.418-0.317c0.333,0.176,0.703,0.405,1.098,0.672c-2.131,3.072-4.23,6.487-6.945,7.441 c-3.989,1.397-7.977,0.59-7.312,5.966c0.304,3.531,9.258,7.569,15.666-1.076c1.654-2.683,3.314-5.197,4.984-7.56 c1.914,1.34,3.782,2.401,5.209,2.476c1.833,0,3.323-1.422,3.323-3.166c0-1.742-1.491-3.166-3.323-3.166 c-0.643,0-1.246,0.176-1.757,0.48c-0.292-0.019-0.587-0.069-0.882-0.144c9.365-12.374,19.19-20.69,30.585-29.634 C140.519,114.9,156.976,108.596,174.447,107.707"/>
    </g>
    <g fill="#255B2D">
      <path d="M105.63,3.355c56.331,0,102.275,45.941,102.275,102.272 c0,56.334-45.944,102.278-102.275,102.278c-56.331,0-102.275-45.944-102.275-102.278C3.355,49.295,49.299,3.355,105.63,3.355 M105.63,0c58.176,0,105.63,47.45,105.63,105.63c0,58.176-47.453,105.626-105.63,105.626C47.45,211.256,0,163.806,0,105.63 C0,47.45,47.45,0,105.63,0"/>
      <path d="M105.63,31.507c41.158,0,74.727,33.57,74.727,74.727 c0,41.158-33.57,74.728-74.727,74.728c-41.158,0-74.728-33.57-74.728-74.728C30.902,65.077,64.472,31.507,105.63,31.507 M105.63,28.155c43.006,0,78.079,35.073,78.079,78.079c0,43.006-35.073,78.079-78.079,78.079 c-43.006,0-78.079-35.073-78.079-78.079C27.55,63.228,62.623,28.155,105.63,28.155"/>
      <path d="M24.281,71.567l-0.301-0.119l-0.439-0.113 c-0.113-0.044-0.22-0.069-0.336-0.079l-0.443-0.075c-0.728-0.151-1.133-0.213-1.221-0.179c0.047,0.235,0.16,0.461,0.339,0.684 l0.493,0.543c0.154,0.238,0.251,0.593,0.292,1.064l0.116,1.434l0.27-0.336l0.292-0.389l0.235-0.38 c0.119-0.22,0.21-0.351,0.267-0.389l0.339-0.631l0.235-0.577l0.141-0.345 M30.071,60.926c-0.311-0.11-0.609-0.195-0.891-0.26 c-0.631-0.138-1.067-0.06-1.306,0.223l-0.166,0.308l-0.075,0.279c-0.025,0.044-0.041,0.198-0.041,0.471l0.022,0.668l0.025,0.292 L30.071,60.926z M26.443,69.232l1.943-3.621l-0.066-0.063l-1.007-1.415l-0.618-0.898c-0.402-0.828-0.584-1.732-0.546-2.711 l0.125-1.205c0.044-0.345,0.119-0.621,0.232-0.832c0.116-0.217,0.283-0.301,0.502-0.254l0.941,0.191l1.952,0.311l0.377,0.091 l0.555,0.148c0.223,0.075,0.452,0.173,0.678,0.292c0.091,0.047,0.358,0.442,0.807,1.183c0.452,0.738,0.681,1.177,0.694,1.312 l-3.597,3.229c-0.063,0.169,0.185,0.69,0.744,1.56c0.242,0.32,0.301,0.599,0.176,0.832l-1.447,2.699l0.063,0.025l-0.587,1.444 c-0.201,0.499-0.788,0.684-1.761,0.559c-0.731-0.191-1.155-0.286-1.284-0.286L25.194,71.8l-0.019,0.151 c0.019,0.213,0.267,0.574,0.731,1.089c0.468,0.512,0.646,0.907,0.533,1.18c-0.047,0.113-0.392,0.628-1.045,1.541l-0.781,1.139 l-0.242,0.374l-0.113,0.286c-0.276-0.113-0.781-0.486-1.516-1.13c-0.734-0.64-1.183-1.171-1.343-1.591 c-0.11-0.257-0.217-0.731-0.32-1.418l-0.411-2.432c-0.091-0.038-0.242-0.05-0.446-0.047l-0.405-0.041l-0.53-0.747l-0.477-0.606 l-0.562-0.662l1.145,0.22l1.13,0.235l3.264,0.803c0.985,0.235,1.582,0.351,1.773,0.351l0.374-0.078 c0.107-0.047,0.204-0.173,0.286-0.377l0.094-0.232l0.217-0.527L26.443,69.232z M42.116,45.834l2.962-2.743 c0.016-0.104-0.088-0.276-0.308-0.508c-0.389-0.411-1.029-0.941-1.911-1.578l-1.428-0.995l-1.594-1.149l-1.117,0.107 l-0.42-1.519l-0.223-0.979l-0.091-0.659l0.279,0.276c0.057,0.063,0.104,0.1,0.141,0.113l0.144,0.05 c0.097,0.053,0.314,0.1,0.65,0.144l1.782-0.317l0.756-0.176l0.518-0.154l0.286,2.947l0.044,0.044l0.552,0.521l0.417,0.389 l0.292,0.235l0.399,0.298l1.422,1.149c0.094,0.097,0.147,0.157,0.173,0.182c0.157,0.17,0.402,0.521,0.741,1.058l0.433,0.697 c0.135,0.201,0.22,0.336,0.26,0.395c0.038,0.06,0.094,0.176,0.166,0.345c0.047,0.019,0.028,0.122-0.069,0.311l-0.173,0.229 l-0.163,0.204L43.7,47.836L42.175,49.7l-0.668-0.107L41.08,49.49l-0.436-0.053l-0.245-0.035l0.104,0.207l0.295,0.7l0.248,0.775 l-3.355,4.108l0.132,0.097L35.83,58.01l-9.559-5.674l-0.615-2.448c0.86,0.618,2.413,1.56,4.657,2.818l2.837,1.6 c0.621,0.348,0.985,0.543,1.092,0.562c0.069,0.047,0.116,0.072,0.138,0.069l0.276,0.041c0.053,0.013,0.151-0.035,0.289-0.141 l0.279-0.32l0.402-0.549l-0.138-0.11l3.634-4.45l-0.232-0.063c-0.351-0.053-0.722-0.028-1.114,0.078 c-0.527,0.144-0.951,0.417-1.28,0.819l-0.26,0.317c-0.097,0.122-0.157,0.223-0.17,0.295l-0.502-1.12l-0.461-1.196l-0.088-0.229 l0.038,0.154l0.072-0.304l0.129-0.439c0.204-0.706,0.486-1.277,0.847-1.72c0.581-0.709,1.34-1.114,2.275-1.215 c0.75-0.066,1.28,0.028,1.597,0.283c0.091,0.075,0.176,0.176,0.254,0.308c0.079,0.129,0.163,0.333,0.251,0.606l0.207,0.628 l0.192,0.358l0.113,0.157l1.083-1.324L42.116,45.834z M50.46,36.777c0.7,0.829,1.202,1.648,1.509,2.454 c0.213,0.546,0.333,1.123,0.37,1.732l-7.249-6.819c-0.069-0.078-0.182-0.555-0.345-1.444l-0.276-1.961l0.659,0.609l1.114,1.026 C48.025,34.091,49.428,35.559,50.46,36.777 M67.115,24.958l0.144,0.264l0.104,0.179l0.082,0.198 c0.091,0.157,0.154,0.314,0.201,0.468l0.104,0.383l0.11,0.195c0.028,0.047,0.041,0.144,0.047,0.282l0.107,0.891 c0.182,1.039,0.248,1.644,0.182,1.82l-8.203,4.51l-0.524,0.242c-0.063,0.038-0.144,0.06-0.239,0.075l-0.285,0.06 c-0.298,0.053-0.678,0.047-1.13-0.016c-0.781-0.135-1.343-0.515-1.692-1.136c-0.377-0.675-0.706-1.607-0.982-2.793 c-0.276-1.183-0.295-1.845-0.034-1.987l0.21,0.176l0.147,0.292l0.1,0.326c0.257,0.722,0.464,1.221,0.618,1.491l0.176,0.317 l0.182,0.242l0.163,0.147l0.286,0.126c0.832,0.336,1.698,0.254,2.592-0.235l7.071-3.885c0.047-0.129,0.028-0.276-0.06-0.436 c-0.063-0.113-0.097-0.176-0.107-0.195l-0.195-0.188c-0.116-0.154-0.264-0.286-0.442-0.395c-0.151-0.17-0.386-0.311-0.703-0.417 l-0.577-0.276l0.041-2.608l0.559,0.289l0.706,0.389c0.317,0.21,0.574,0.417,0.775,0.612 C66.842,24.557,67.005,24.758,67.115,24.958 M61.048,21.786l-0.094,0.493l-0.151,0.653l-0.226,0.741 c-0.057,0.031-0.411,0.053-1.048,0.057l-1.045-0.006l-0.191,0.612c-0.138,0.361-0.195,0.571-0.17,0.634 c-0.245,0.079-0.618,0.11-1.13,0.097c-0.386,0.022-0.715,0.006-0.985-0.057l0.148-0.628c0.047-0.235,0.11-0.446,0.182-0.637 l0.182-0.596c0.125,0.053,0.458,0.088,0.998,0.104c0.521-0.013,0.819-0.041,0.907-0.088c0.05-0.028,0.138-0.229,0.26-0.612 c0.06-0.213,0.107-0.37,0.147-0.483c0.034-0.11,0.075-0.195,0.107-0.251L61.048,21.786z M72.123,23.838 c0.442,0.985,0.7,1.911,0.769,2.771c0.05,0.581,0.006,1.171-0.125,1.767l-5.075-8.536c-0.041-0.094-0.019-0.584,0.072-1.484 l0.279-1.961l0.464,0.769l0.785,1.29C70.529,20.59,71.467,22.385,72.123,23.838 M80.6,24.61c0.103,1.12,0.022,2.247-0.254,3.383 c-0.395,1.654-1.092,2.639-2.093,2.962c-0.515,0.169-1.591,0.204-3.232,0.11c-1.635-0.091-2.495-0.251-2.573-0.49 c-0.038-0.116,0.009-0.198,0.144-0.242l0.854-0.025l0.452-0.031l0.377,0.022c0.634-0.031,1.089-0.091,1.356-0.176 c0.389-0.122,0.797-0.417,1.23-0.876c0.43-0.461,0.885-1.095,1.359-1.911c0.979-1.579,1.346-2.736,1.105-3.474 c-0.091-0.27-0.577-0.643-1.465-1.111c-0.505-0.264-1.083-0.505-1.723-0.722l0.05-2.693c0.668,0.122,1.356,0.436,2.056,0.948 c1.004,0.741,1.695,1.685,2.068,2.828C80.433,23.493,80.527,23.989,80.6,24.61 M94.935,19.272l-0.075-0.436l-0.129-0.355 c-0.019-0.097-0.113-0.279-0.286-0.54c-0.32-0.534-0.703-0.756-1.145-0.678l-0.565,0.11c-0.132,0.025-0.276,0.078-0.439,0.166 c-0.257,0.091-0.496,0.264-0.709,0.499l-0.27,0.326l0.499,0.223l0.499,0.191l0.389,0.116l0.973,0.348l0.267,0.066l0.273,0.05 l0.286,0.016l0.22-0.028L94.935,19.272z M104.977,11.495l-0.499,0.665l-0.402,0.493l-0.257,0.282l-0.92-0.54 c-0.603-0.361-0.951-0.54-1.045-0.537l-0.414,0.377l-0.311,0.326l-0.33,0.389c-0.307-0.119-0.627-0.279-0.954-0.48 c-0.33-0.207-0.568-0.377-0.719-0.505l0.524-0.65L99.922,11l0.195-0.21l0.182-0.176l0.427,0.273l0.483,0.289 c0.396,0.21,0.675,0.33,0.841,0.37c0.097-0.003,0.351-0.207,0.763-0.621l0.439-0.436L104.977,11.495z M103.123,9.399 l-1.214,1.149l-1.415-1.076l1.274-1.211L103.123,9.399z M114.037,10.118c-0.091,0.129-0.386,0.449-0.879,0.96l-0.446,0.414 l-0.188,0.157c-0.047,0-0.374-0.157-0.976-0.474l-1.036-0.625l-0.763,0.665l-0.301,0.33c-0.26-0.053-0.643-0.223-1.155-0.505 c-0.508-0.282-0.8-0.486-0.872-0.615l0.612-0.653l0.433-0.414l0.468-0.43c0.066,0.069,0.367,0.276,0.91,0.631l0.533,0.273 l0.358,0.141c0.072,0,0.264-0.141,0.571-0.43c0.301-0.286,0.53-0.477,0.684-0.562L114.037,10.118z M115.23,18.437l3.578,0.625 c0.26,0.044,0.515-0.113,0.753-0.474c0.075-0.169,0.138-0.421,0.195-0.753c0.078-0.135,0.367-0.383,0.866-0.728 c0.386-0.308,0.847-0.65,1.387-1.026c-0.057,0.317-0.279,0.866-0.665,1.641l-0.242,0.446c-0.078,0.144-0.163,0.276-0.267,0.383 l-0.248,0.471c-0.016,0.094,0.163,0.248,0.543,0.446l0.621,0.207l0.775,0.176l0.32,0.057l0.794,0.097l0.716-0.031l0.069-0.386 c0.057-0.326,0.116-0.546,0.185-0.672c0.072-0.122,0.154-0.238,0.248-0.336c0.041-0.063,0.342-0.301,0.901-0.731l1.205-0.81 l-0.681,1.437l-0.289,0.665c-0.132,0.326-0.216,0.596-0.254,0.797c-0.019,0.113-0.019,0.204,0.003,0.276l2.15,0.436 l-0.044-0.395v-0.289l-0.009-0.568l0.003-0.402c0.013-0.063,0.279-0.333,0.8-0.8c0.26-0.232,0.505-0.427,0.728-0.599 l0.609-0.436l-0.521,2.928c-0.094,0.546-0.22,1.001-0.37,1.384l-0.188,0.339l-0.399,0.54l-0.339,0.477l-0.226,0.405l-3.374-0.59 l-0.072-0.151l-0.05-0.235c-0.028-0.122-0.091-0.226-0.182-0.317l-0.066,0.025l-0.147,0.104l-0.377,0.326l-1.004-0.038 l-0.634-0.06l-0.59-0.104l-0.308-0.053c-0.64-0.11-1.095-0.217-1.375-0.317c-0.279-0.094-0.464-0.213-0.559-0.345l-0.179-0.559 l-0.038-0.154l-0.147,0.132c-0.157,0.151-0.374,0.289-0.646,0.417l-0.282,0.085l-0.308,0.025l-2.812-0.489l0.016-0.097 l-1.029-0.019c-0.446-0.006-0.832-0.154-1.152-0.439c-0.317-0.286-0.559-0.706-0.712-1.271l-0.967,1.663l-4.142-0.072v0.097 l-1.635,0.028c-0.386,0.009-0.759-0.107-1.111-0.351c-0.214-0.201-0.436-0.606-0.675-1.211l-0.226,0.449l-0.191,0.361 c-0.132,0.301-0.289,0.565-0.477,0.8l-4.5,0.078l-1.513,0.264c-0.173,0.031-0.304,0.279-0.389,0.744 c-0.044,0.468-0.141,0.716-0.295,0.744c-0.1,0.016-0.323-0.025-0.672-0.122c-0.345-0.1-0.813-0.257-1.412-0.483l-3.697-1.271 c-0.173,0.179-0.292,0.449-0.361,0.803c-0.126,0.54-0.483,0.863-1.07,0.967l-1.864,0.326v0.003l-3.276,0.869l-3.825-10.372 l1.073-2.288c0.273,1.02,0.885,2.721,1.83,5.096l1.189,3.016c0.26,0.659,0.421,1.036,0.493,1.117 c0.022,0.082,0.044,0.129,0.063,0.141l0.188,0.204c0.035,0.041,0.141,0.066,0.314,0.069l0.424-0.075l0.693-0.182l-0.003-0.028 l3.336-0.584c0.298-0.05,0.502-0.254,0.625-0.612c0.251-0.872,0.424-1.387,0.511-1.544c0.292-0.559,0.829-1.167,1.607-1.823 c0.785-0.656,1.397-1.026,1.839-1.102c0.245-0.044,0.439-0.034,0.599,0.022c0.091,0.069,0.157,0.198,0.195,0.392l0.085,0.486 l0.063,0.276l0.135,0.267c0.289,0.477,0.653,0.945,1.089,1.406c0.527,0.606,0.935,0.888,1.224,0.838l0.665-0.116l0.107,0.609 l-0.009-0.593l5.15-0.088l0.091-0.336l0.041-0.518l0.044-1.202l1.572-1.993l0.025,0.26l0.038,0.48l-0.006,0.408l0.006,0.311 l-0.044,0.232l-0.031,0.518l-0.103,0.65l-0.003,0.173c0.003,0.188,0.104,0.402,0.308,0.65c0.267,0.217,0.568,0.323,0.891,0.317 l0.527-0.009v-0.11l5.203,0.091l0.038-0.091l0.116-0.304l0.069-0.308l0.01-0.345l0.082-1.371l1.563-1.779l-0.006,0.326 l-0.05,0.91l-0.047,0.665l-0.006,0.198l-0.057,0.185l-0.103,0.493l-0.003,0.147c-0.006,0.336,0.119,0.631,0.374,0.898 c0.311,0.279,0.665,0.421,1.064,0.427l0.339,0.006l-0.025,1.403L115.23,18.437z M139.052,22.849l-0.866,0.439l-0.612,0.238 l-0.543,0.166l0.317,0.217l0.788,0.342l0.154,0.057c0.295,0.11,0.596,0.198,0.913,0.267l0.006-0.342l-0.031-0.505l-0.063-0.483 L139.052,22.849z M146.374,17.847l-2.103,1.535l-0.308-0.132c-0.044-0.019-0.088-0.066-0.132-0.141l-0.201-0.239l-0.151,0.395 l-0.157,0.254l-0.148,0.254c-0.05,0.11-0.138,0.232-0.267,0.37c-0.311,0.464-0.559,0.759-0.731,0.888l-0.897,0.838 c-0.251,0.232-0.458,0.374-0.621,0.424l0.082,1.302l-0.003,0.568l-0.05,0.433l-0.16,0.521c-0.053,0.144-0.091,0.239-0.103,0.27 c-0.176,0.452-0.348,0.816-0.518,1.098l-0.436,0.85l-6.16-2.344c-0.141-0.053-0.232-0.242-0.286-0.568 c0.025-0.154,0.063-0.336,0.119-0.549c0.057-0.213,0.122-0.414,0.195-0.606l0.282-0.697c0.069-0.179,0.173-0.361,0.304-0.549 c0.179-0.317,0.32-0.483,0.424-0.502l0.05,0.138l0.088,0.433c0.044,0.351,0.276,0.606,0.706,0.769 c0.229,0.088,0.53,0.094,0.891,0.009l1.048-0.264l0.461-0.116l0.524-0.182c0.33-0.116,0.577-0.229,0.744-0.342l-0.009-0.097 l-0.173-0.596l-0.207-0.634l-0.311-0.756c-0.038-0.125-0.1-0.273-0.176-0.439l-0.301-0.534 c-0.232-0.389-0.389-0.599-0.468-0.628c-0.044-0.016-0.141,0.075-0.301,0.279c-0.157,0.21-0.289,0.289-0.395,0.248l-0.339-0.54 l-0.204-0.26c-0.433-0.612-0.838-1.108-1.224-1.472c-0.279-0.242-0.427-0.508-0.442-0.81c-0.009-0.301,0.05-0.621,0.179-0.957 c0.11-0.279,0.37-0.668,0.788-1.174l0.474-0.521l0.521-0.515c0.439,0.166,0.951,0.709,1.522,1.622 c0.147,0.22,0.32,0.505,0.508,0.872l0.264,0.496l0.421,0.81c0.17,0.329,0.329,0.709,0.493,1.152l0.487,1.497l0.474,1.914 c0.119-0.091,0.408-0.43,0.863-1.007l0.279-0.436l0.286-0.502l0.207-0.436l0.116-0.301c0.141-0.361,0.204-0.703,0.198-1.026 l-0.207-0.709l0.348-0.279l1.051-0.781l1.362-0.963c-0.132,0.339-0.192,0.615-0.179,0.825c0.009,0.213,0.157,0.508,0.436,0.888 l0.603,0.747C146.201,17.439,146.389,17.74,146.374,17.847 M147.99,27.177c-0.496,0.963-1.058,1.745-1.688,2.341 c-0.424,0.405-0.913,0.741-1.465,1.01l3.502-9.28c0.044-0.091,0.442-0.383,1.205-0.879l1.713-1.017l-0.307,0.841l-0.521,1.415 C149.531,23.907,148.718,25.762,147.99,27.177 M161.83,35.883c0.063-0.22,0.097-0.449,0.097-0.681 c0.025-0.264,0.012-0.521-0.038-0.766c-0.063-0.502-0.151-0.791-0.267-0.869c-0.163-0.116-0.408-0.138-0.738-0.075 c-0.213,0.057-0.483,0.176-0.813,0.348c0,0.104,0.016,0.204,0.044,0.304l0.104,0.389l0.097,0.254l0.154,0.254l0.26,0.26 l0.276,0.191l0.254,0.176l0.223,0.157l0.144,0.038L161.83,35.883z M162.143,39.636l-0.769,0.64l-0.612,0.48 c-0.452,0.383-0.847,0.646-1.177,0.8c-0.496,0.094-1.431,0.022-2.806-0.232c-0.916-0.179-1.739-0.402-2.463-0.665l-0.621-0.264 l-0.549-0.279c-0.242-0.126-0.417-0.22-0.537-0.301c-0.119-0.075-0.21-0.138-0.279-0.188c-1.095-0.756-1.764-1.616-2.002-2.57 c-0.201-0.847,0.006-1.71,0.615-2.573c0.282-0.395,0.65-0.813,1.105-1.246c0.461-0.43,0.995-0.832,1.601-1.205 c1.196-0.8,1.911-1.117,2.15-0.954c0.063,0.044,0.063,0.122,0.012,0.235c-0.044,0.066-0.173,0.179-0.377,0.326l-0.876,0.634 l-0.945,0.712c-0.245,0.213-0.433,0.417-0.565,0.609c-0.571,0.806-0.656,1.657-0.245,2.545c0.333,0.675,0.816,1.23,1.437,1.663 c1.017,0.703,2.125,1.252,3.323,1.648c1.199,0.392,2.187,0.527,2.966,0.405l0.333-0.69l0.125-0.198l0.144-0.402 c0.103-0.188,0.163-0.373,0.169-0.562l0.053-0.264c0.025-0.085,0.031-0.176,0.031-0.279c-0.276,0.122-0.508,0.188-0.703,0.191 c-0.621,0.047-1.246-0.154-1.88-0.593c-0.449-0.314-0.778-0.75-0.982-1.315c-0.204-0.565-0.163-1.045,0.116-1.444 c0.392-0.552,1.227-1.158,2.507-1.804c1.387-0.672,2.404-0.778,3.047-0.33c0.213,0.144,0.367,0.342,0.471,0.581 c0.107,0.182,0.176,0.512,0.21,0.976c0.038,0.81-0.176,1.899-0.64,3.254l-0.273,0.687l-0.308,0.672l-0.521,0.935l-0.192,0.276 L162.143,39.636z M167.155,30.846c-0.48,0.138-0.901,0.245-1.271,0.304c-0.374,0.088-0.637,0.126-0.794,0.116 c-0.041-0.031-0.283-0.471-0.722-1.331l-0.283-0.609l-0.179,0.031l-0.537,0.078l-0.571,0.072l-0.107,0.019 c-0.11-0.075-0.223-0.21-0.339-0.405l-0.163-0.26l-0.157-0.383l-0.245-0.515l-0.119-0.389l1.4-0.323l0.634-0.119 c0.006,0.066,0.138,0.405,0.383,1.011c0.223,0.483,0.38,0.756,0.471,0.819l0.141,0.035c0.079,0.028,0.195,0.022,0.333-0.022 l0.521-0.091l0.581-0.063L167.155,30.846z M168.376,42.812l0.088-0.091c0.276-0.295,0.408-0.637,0.395-1.039 c-0.009-0.395-0.132-0.703-0.364-0.919c-0.063-0.06-0.119-0.107-0.163-0.129c-0.041-0.028-0.138-0.075-0.295-0.144 c-0.154-0.063-0.339-0.094-0.559-0.091c-0.436-0.022-0.728,0.05-0.876,0.204c-0.097,0.107-0.082,0.361,0.038,0.778l0.301,0.496 l0.348,0.392l0.17,0.157l0.094,0.088l0.198,0.06L168.376,42.812z M169.609,44.462c-1.193,1.265-2.667,2.216-4.428,2.856 c-2.071,0.731-3.631,0.612-4.676-0.355c-0.389-0.361-0.703-0.709-0.932-1.045l-0.248-0.333c-0.047-0.06-0.085-0.1-0.107-0.132 c-0.022-0.034-0.06-0.097-0.107-0.201l-0.27-0.405c-0.085-0.119-0.138-0.204-0.173-0.254c-0.028-0.05-0.078-0.144-0.147-0.276 c-0.744-1.189-1.067-1.892-0.973-2.103c0.072-0.075,0.213-0.066,0.43,0.031l0.242,0.326l0.565,0.829l0.345,0.449l0.395,0.436 c0.21,0.198,0.37,0.317,0.48,0.358l0.232,0.151l0.279,0.088c0.665,0.245,1.35,0.414,2.049,0.521 c0.703,0.1,1.422,0.147,2.153,0.138c1.6-0.009,2.696-0.326,3.279-0.948l0.094-0.097l0.066-0.075l0.056-0.06l0.16-0.33 c0.057-0.06,0.132-0.201,0.223-0.424l-0.574,0.304l-0.493,0.201l-0.314,0.113l-0.226,0.06l-0.245,0.028 c-0.581,0.031-1.161-0.226-1.761-0.778c-0.537-0.496-0.703-1.07-0.493-1.723c0.069-0.173,0.188-0.37,0.358-0.599l0.712-0.828 c0.417-0.446,1.271-0.822,2.561-1.13c1.412-0.351,2.369-0.298,2.878,0.173c0.345,0.32,0.386,1.042,0.116,2.165 C170.855,42.714,170.35,43.672,169.609,44.462 M186.879,54.605c-0.104,0.069-0.483-0.013-1.136-0.251 c-0.659-0.235-1.014-0.399-1.067-0.48c-0.044-0.063-0.041-0.452,0.003-1.171c0.072-0.697,0.144-1.064,0.204-1.102 c0.063-0.041,0.458,0.028,1.183,0.198c0.728,0.173,1.13,0.308,1.202,0.405l-0.157,1.164c-0.053,0.342-0.097,0.606-0.135,0.797 C186.942,54.351,186.91,54.498,186.879,54.605 M189.339,74.724c0.041,0.025,0.163,0.031,0.361,0.025 c0.248-0.116,0.442-0.549,0.587-1.296c0.069-0.358,0.094-0.687,0.079-0.976l-0.041-0.314l-0.05-0.166l-0.057-0.217 c-0.239-0.502-0.574-0.916-1.017-1.249l-1.858-1.23l-1.337-0.938l2.605,5.539C188.809,74.32,189.051,74.593,189.339,74.724 M182.071,59.997l1.588,3.374l1.484-1.058c0.138-0.019,0.549,0.063,1.236,0.232l1.535,0.37l-2.815,1.506 c-0.21,0.097-0.373,0.251-0.49,0.474c-0.056,0.207-0.044,0.405,0.044,0.59l0.17,0.358l0.154,0.323 c0.053,0.082,0.144,0.173,0.267,0.289c0.185,0.21,0.461,0.439,0.828,0.668l1.447,0.91l3.217,1.855 c1.327,0.825,2.093,1.456,2.3,1.899c0.257,0.546,0.232,1.387-0.082,2.529c-0.317,1.136-0.731,1.826-1.262,2.071l-1.142,0.053 l-1.375,0.035c-0.744,0-1.284-0.035-1.616-0.1c-0.358-0.044-0.627-0.182-0.81-0.43l-5.175-11 c-0.034-0.075,0.022-0.213,0.173-0.424l0.938-0.703l-1.726-0.182l-1.054-2.241l-0.499,0.32l-0.772-1.18 c-0.289-0.442-0.345-0.945-0.173-1.509l0.195-0.364l0.377-0.449l-1.839,0.122l-2.316-3.537l0.031-0.019l-0.932-1.058 c-0.085-0.06-0.047-0.248,0.119-0.562l0.188-0.298l0.129-0.207l0.082-0.135c0.041-0.038,0.082-0.11,0.11-0.213l0.116-0.245 l0.053-0.129l-0.132-0.05c-0.147-0.06-0.533-0.009-1.155,0.147c-0.527,0.191-0.844,0.207-0.951,0.047l-3.618-4.124 c-0.078-0.091-0.122-0.217-0.132-0.38c0.028-0.119,0.094-0.242,0.204-0.37l1.108-0.759c0.747-0.474,1.293-0.785,1.644-0.926 l0.26-0.138l0.289-0.104c0.364-0.151,0.581-0.188,0.643-0.113l-0.041,0.1l-0.097,0.119l-0.235,0.185l-0.11,0.097l-0.141,0.085 l-0.17,0.147c-0.079,0.069-0.132,0.104-0.157,0.1c-0.251,0.217-0.414,0.421-0.496,0.606c-0.066,0.204-0.009,0.402,0.163,0.599 l3.502,3.992l0.129-0.078l0.151-0.11c0.329-0.286,0.646-0.665,0.938-1.136l1.444-2.209l2.693-0.719l-0.672,0.967l-1.851,2.658 l-0.926,1.296c-0.392,0.555-0.509,0.929-0.342,1.114l0.342,0.392l-0.11,0.097l0.075-0.047l2.655,4.055l0.336-0.1l0.468-0.239 l1.045-0.606l0.305,0.028l0.919,0.088c0.769,0.072,1.208,0.126,1.318,0.151l-0.21,0.163l-0.392,0.286l-0.351,0.21l-0.26,0.169 l-0.226,0.085l-0.458,0.254l-0.609,0.254l-0.132,0.069c-0.207,0.135-0.339,0.345-0.405,0.631 c-0.044,0.342,0.022,0.643,0.198,0.91l0.279,0.427L182.071,59.997z M16.658,68.821l0.27,0.521l0.267,0.546 c0.185,0.395,0.279,0.628,0.279,0.697l-0.094,0.097c-0.1,0.11-0.314,0.308-0.646,0.593c-0.493,0.417-0.781,0.643-0.872,0.681 l0.132,0.317l0.107,0.298c0.119,0.358,0.213,0.552,0.27,0.584c-0.107,0.154-0.22,0.289-0.336,0.399l-0.493,0.417l-0.374,0.289 c-0.182,0.135-0.326,0.223-0.436,0.27l-0.574-1.243l-0.235-0.524c0.135-0.069,0.43-0.26,0.876-0.568 c0.389-0.292,0.606-0.493,0.65-0.603c0.031-0.082,0.003-0.223-0.088-0.439l-0.38-0.979L16.658,68.821z"/>
      <path d="M22.915,137.729l0.37,0.96c0.289,0.756,0.621,1.236,1.004,1.44 c0.38,0.204,0.775,0.229,1.183,0.072c0.398-0.154,0.687-0.417,0.86-0.788c0.176-0.37,0.122-0.923-0.157-1.657l-0.43-1.114 M24.193,158.284l-1.71-3.082l1.396-0.772c-0.828-0.144-1.494-0.38-1.993-0.712c-0.502-0.333-0.945-0.841-1.321-1.522 c-0.505-0.907-0.628-1.77-0.37-2.589c0.254-0.816,0.951-1.538,2.081-2.162l5.483-3.038l1.836,3.317l-4.736,2.624 c-0.54,0.298-0.869,0.612-0.985,0.938c-0.116,0.326-0.075,0.672,0.129,1.032c0.22,0.395,0.549,0.631,0.989,0.716 c0.446,0.082,1.058-0.094,1.839-0.524l4.142-2.3l1.833,3.305L24.193,158.284z M31.762,160.076 c-0.665,0.518-1.051,1.023-1.158,1.506c-0.103,0.483-0.003,0.92,0.298,1.306c0.279,0.355,0.659,0.537,1.142,0.549 c0.48,0.009,1.073-0.257,1.77-0.8c0.612-0.48,0.97-0.951,1.073-1.409c0.1-0.461,0.022-0.86-0.242-1.196 c-0.317-0.405-0.722-0.618-1.224-0.643C32.926,159.37,32.374,159.599,31.762,160.076 M36.24,151.769l2.347,3.006l-3.709,2.897 c0.543,0.053,1.039,0.213,1.491,0.464c0.449,0.257,0.857,0.612,1.214,1.073c0.738,0.941,1.008,1.993,0.813,3.141 c-0.198,1.149-0.932,2.222-2.2,3.21c-0.85,0.662-1.71,1.105-2.573,1.327c-0.863,0.223-1.654,0.207-2.36-0.041 c-0.709-0.251-1.302-0.678-1.779-1.293c-0.408-0.518-0.668-1.083-0.785-1.692c-0.078-0.461-0.025-1.076,0.154-1.836 l-1.145,0.894l-2.175-2.784L36.24,151.769z M43.351,160.949l2.583,2.768l-9.942,9.27l-2.58-2.768L43.351,160.949z M44.729,167.655l2.718,2.624l-6.841,7.083l-2.715-2.624L44.729,167.655z M47.334,164.956l2.715,2.624l-1.786,1.848l-2.715-2.62 L47.334,164.956z M50.409,180.563l2.529,2.573c-0.621,0.461-1.284,0.756-1.977,0.901c-0.697,0.141-1.409,0.107-2.146-0.097 c-0.734-0.207-1.522-0.65-2.363-1.331c-0.813-0.659-1.425-1.284-1.845-1.867c-0.417-0.593-0.684-1.211-0.797-1.867 c-0.116-0.656-0.1-1.299,0.05-1.933c0.144-0.634,0.527-1.327,1.139-2.084c0.637-0.788,1.299-1.337,1.996-1.641 c0.505-0.226,1.054-0.351,1.641-0.38c0.59-0.025,1.123,0.028,1.604,0.173c0.763,0.226,1.594,0.7,2.485,1.425 c1.249,1.011,2.021,2.005,2.313,2.984c0.295,0.976,0.226,2.002-0.207,3.075l-3.057-1.867c0.179-0.395,0.223-0.769,0.125-1.117 c-0.094-0.355-0.329-0.684-0.719-0.995c-0.483-0.392-1.02-0.537-1.601-0.433c-0.584,0.107-1.158,0.512-1.729,1.218 c-0.512,0.628-0.747,1.227-0.712,1.795c0.031,0.568,0.279,1.039,0.741,1.412c0.383,0.311,0.785,0.474,1.208,0.49 C49.509,181.011,49.948,180.867,50.409,180.563 M64.541,178.149l3.716,1.974l-6.38,12.004l-3.716-1.977L64.541,178.149z M67.971,184.325l3.257,1.315l-0.599,1.484c0.731-0.408,1.4-0.64,2.002-0.7c0.606-0.06,1.268,0.053,1.983,0.342 c0.967,0.392,1.607,0.989,1.924,1.783c0.314,0.797,0.226,1.798-0.257,3l-2.347,5.806l-3.515-1.422l2.027-5.021 c0.232-0.574,0.292-1.02,0.176-1.343c-0.116-0.326-0.367-0.565-0.75-0.719c-0.424-0.173-0.835-0.151-1.224,0.066 c-0.395,0.21-0.759,0.737-1.095,1.566l-1.77,4.384l-3.502-1.412L67.971,184.325z M77.163,188.123l3.779,1.086l0.119,6.521 l3.615-5.451l3.662,1.048l-6.735,8.313l-3.214-0.923L77.163,188.123z M94.122,196.219c0.025-0.734-0.097-1.28-0.367-1.632 c-0.27-0.358-0.662-0.574-1.177-0.646c-0.596-0.082-1.102,0.088-1.525,0.508c-0.267,0.264-0.474,0.678-0.615,1.252 L94.122,196.219z M97.668,198.545l-7.491-1.054c-0.019,0.612,0.082,1.08,0.295,1.412c0.301,0.471,0.747,0.747,1.327,0.829 c0.367,0.053,0.728,0.009,1.086-0.129c0.22-0.088,0.464-0.26,0.737-0.521l3.634,0.857c-0.703,0.901-1.478,1.506-2.332,1.82 c-0.857,0.311-2.027,0.364-3.515,0.157c-1.293-0.182-2.281-0.508-2.972-0.976c-0.69-0.468-1.224-1.133-1.597-1.993 c-0.374-0.863-0.487-1.83-0.339-2.9c0.213-1.525,0.879-2.689,1.983-3.493c1.111-0.803,2.526-1.089,4.246-0.847 c1.393,0.198,2.467,0.565,3.214,1.102c0.75,0.533,1.28,1.233,1.588,2.09c0.311,0.863,0.374,1.936,0.191,3.223L97.668,198.545z M98.393,199.816l3.757-0.226c0.135,0.452,0.342,0.778,0.615,0.979c0.27,0.201,0.637,0.311,1.102,0.326 c0.505,0.019,0.904-0.075,1.186-0.286c0.223-0.151,0.336-0.348,0.345-0.59c0.009-0.27-0.125-0.483-0.402-0.643 c-0.204-0.11-0.737-0.26-1.61-0.446c-1.299-0.276-2.203-0.518-2.708-0.731c-0.502-0.213-0.92-0.555-1.252-1.029 c-0.333-0.477-0.49-1.01-0.471-1.607c0.025-0.646,0.232-1.199,0.628-1.654c0.392-0.458,0.923-0.791,1.591-1.001 c0.672-0.207,1.56-0.295,2.674-0.254c1.174,0.041,2.037,0.163,2.589,0.361c0.555,0.198,1.008,0.493,1.368,0.882 c0.361,0.389,0.653,0.91,0.879,1.563l-3.587,0.229c-0.085-0.32-0.229-0.559-0.439-0.712c-0.292-0.21-0.646-0.32-1.067-0.336 c-0.424-0.016-0.737,0.05-0.938,0.195c-0.201,0.147-0.301,0.326-0.307,0.543c-0.01,0.242,0.107,0.427,0.348,0.559 c0.242,0.132,0.775,0.26,1.604,0.392c1.246,0.185,2.172,0.414,2.774,0.687c0.606,0.276,1.061,0.653,1.365,1.136 c0.311,0.477,0.455,0.998,0.433,1.563c-0.019,0.568-0.207,1.114-0.571,1.641c-0.361,0.524-0.919,0.935-1.666,1.227 c-0.75,0.292-1.76,0.414-3.032,0.37c-1.798-0.063-3.069-0.364-3.813-0.904C99.039,201.51,98.575,200.764,98.393,199.816 M113.911,188.672l0.326,3.734l2.068-0.182l0.238,2.743l-2.065,0.182l0.301,3.48c0.038,0.42,0.101,0.694,0.195,0.822 c0.138,0.198,0.364,0.286,0.672,0.26c0.279-0.025,0.659-0.141,1.146-0.345l0.502,2.573c-0.913,0.282-1.77,0.458-2.576,0.53 c-0.935,0.082-1.638,0.022-2.099-0.179c-0.468-0.201-0.829-0.54-1.08-1.007c-0.257-0.471-0.433-1.255-0.527-2.354l-0.301-3.452 l-1.387,0.122l-0.242-2.743l1.387-0.122l-0.157-1.801L113.911,188.672z M116.604,192.686l3.417-0.85l0.345,1.393 c0.348-0.706,0.744-1.243,1.18-1.616c0.439-0.37,1.014-0.643,1.723-0.822c0.759-0.188,1.397-0.204,1.908-0.044 c0.511,0.16,0.973,0.471,1.39,0.935c0.42-0.766,0.838-1.324,1.255-1.666c0.417-0.342,0.976-0.603,1.673-0.778 c1.023-0.254,1.902-0.147,2.627,0.32c0.728,0.461,1.252,1.343,1.575,2.639l1.497,6l-3.672,0.916l-1.356-5.442 c-0.107-0.436-0.27-0.737-0.49-0.904c-0.329-0.264-0.678-0.355-1.042-0.264c-0.433,0.107-0.744,0.351-0.929,0.728 c-0.185,0.377-0.191,0.91-0.019,1.6l1.23,4.927l-3.672,0.92l-1.315-5.266c-0.104-0.421-0.198-0.697-0.282-0.835 c-0.141-0.22-0.32-0.38-0.549-0.477c-0.232-0.1-0.474-0.119-0.731-0.057c-0.421,0.107-0.725,0.352-0.916,0.734 c-0.192,0.389-0.195,0.941-0.013,1.666l1.215,4.877l-3.672,0.916L116.604,192.686z M141.735,189.318 c-0.345-0.653-0.722-1.061-1.133-1.233c-0.414-0.176-0.863-0.166-1.343,0.028c-0.559,0.226-0.91,0.628-1.067,1.205 c-0.1,0.361-0.069,0.822,0.094,1.39L141.735,189.318z M145.968,189.554l-7.014,2.834c0.289,0.54,0.612,0.894,0.963,1.073 c0.496,0.257,1.02,0.276,1.563,0.056c0.342-0.138,0.634-0.355,0.876-0.653c0.144-0.185,0.273-0.458,0.377-0.822l3.577-1.076 c-0.16,1.133-0.527,2.046-1.111,2.746c-0.587,0.697-1.572,1.327-2.966,1.892c-1.208,0.486-2.231,0.7-3.063,0.64 c-0.828-0.06-1.626-0.37-2.379-0.929c-0.753-0.559-1.334-1.337-1.742-2.341c-0.574-1.425-0.584-2.765-0.028-4.014 c0.562-1.255,1.641-2.206,3.254-2.859c1.306-0.527,2.42-0.747,3.333-0.653c0.916,0.088,1.726,0.427,2.42,1.017 c0.7,0.59,1.293,1.491,1.779,2.693L145.968,189.554z M144.048,183.93l3.047-1.757l0.8,1.387c0.126-0.832,0.355-1.5,0.681-2.012 c0.323-0.515,0.819-0.967,1.488-1.349c0.904-0.524,1.77-0.659,2.592-0.421c0.819,0.245,1.556,0.929,2.203,2.049l3.129,5.423 l-3.282,1.896l-2.708-4.689c-0.307-0.537-0.624-0.857-0.951-0.963c-0.329-0.11-0.668-0.06-1.026,0.148 c-0.395,0.229-0.631,0.565-0.706,1.004c-0.072,0.443,0.116,1.051,0.562,1.83l2.366,4.095l-3.27,1.886L144.048,183.93z M155.559,172.228l2.2,3.032l1.682-1.221l1.616,2.228l-1.679,1.218l2.056,2.831c0.245,0.339,0.442,0.543,0.587,0.602 c0.223,0.097,0.458,0.06,0.709-0.126c0.226-0.163,0.493-0.458,0.803-0.882l1.757,1.946c-0.634,0.712-1.28,1.305-1.936,1.782 c-0.759,0.552-1.393,0.863-1.889,0.929c-0.505,0.069-0.989-0.038-1.447-0.308c-0.461-0.273-1.014-0.854-1.663-1.745 l-2.037-2.806l-1.127,0.819l-1.619-2.228l1.127-0.819l-1.064-1.462L155.559,172.228z M161.685,167.345l7.083-7.595l2.137,1.993 l-4.208,4.51l1.735,1.619l3.593-3.851l2.005,1.87l-3.59,3.854l4.061,3.785l-2.878,3.088L161.685,167.345z M186.135,159.097 l-2.021,2.887l-1.306-0.913c0.235,0.807,0.314,1.509,0.235,2.103c-0.078,0.599-0.345,1.218-0.791,1.855 c-0.593,0.85-1.315,1.34-2.162,1.469c-0.847,0.126-1.801-0.182-2.859-0.923l-5.134-3.593l2.175-3.107l4.437,3.104 c0.505,0.355,0.929,0.515,1.274,0.477c0.345-0.041,0.634-0.229,0.872-0.568c0.26-0.37,0.326-0.769,0.21-1.205 c-0.119-0.436-0.546-0.907-1.28-1.422l-3.879-2.718l2.162-3.091L186.135,159.097z M179.011,152.51l1.704-3.076l1.4,0.775 c-0.317-0.775-0.468-1.469-0.452-2.074c0.013-0.609,0.207-1.249,0.581-1.924c0.508-0.913,1.177-1.475,2.005-1.695 c0.828-0.213,1.811-0.006,2.947,0.621l5.473,3.038l-1.839,3.317l-4.736-2.627c-0.54-0.301-0.976-0.411-1.312-0.336 c-0.336,0.075-0.603,0.295-0.807,0.656c-0.22,0.399-0.248,0.81-0.082,1.224c0.16,0.417,0.64,0.844,1.422,1.277l4.136,2.291 l-1.83,3.305L179.011,152.51z M191.234,138.281c-0.725-0.276-1.318-0.333-1.792-0.163c-0.471,0.169-0.797,0.49-0.976,0.957 c-0.157,0.408-0.119,0.816,0.116,1.227c0.232,0.408,0.75,0.766,1.55,1.07c0.753,0.289,1.356,0.358,1.817,0.207 c0.458-0.151,0.769-0.443,0.929-0.86c0.173-0.452,0.144-0.891-0.094-1.327C192.546,138.956,192.028,138.586,191.234,138.281 M184.522,131.65l12.688,4.871l-1.262,3.298l-1.362-0.521c0.398,0.684,0.627,1.252,0.684,1.714 c0.069,0.609-0.016,1.224-0.254,1.848c-0.48,1.252-1.324,2.027-2.529,2.322c-1.205,0.295-2.489,0.182-3.851-0.342 c-1.525-0.584-2.551-1.397-3.075-2.438c-0.527-1.039-0.577-2.125-0.147-3.245c0.213-0.549,0.496-1.011,0.854-1.39 c0.358-0.373,0.781-0.665,1.287-0.872l-4.397-1.688L184.522,131.65z M26.813,131.713l2.501,6.518 c0.546,1.418,0.618,2.611,0.213,3.578c-0.405,0.963-1.23,1.688-2.476,2.165c-1.28,0.493-2.432,0.493-3.446,0 c-1.02-0.496-1.83-1.535-2.438-3.113l-0.822-2.147l-4.71,1.811l-1.51-3.942L26.813,131.713z"/>
      <path d="M17.016,100.901c0.841,0,1.494-0.191,1.955-0.577 c0.464-0.386,0.697-0.835,0.697-1.343c0-0.48-0.191-0.882-0.571-1.199c-0.38-0.32-1.001-0.48-1.87-0.48 c-0.876,0-1.522,0.176-1.93,0.521c-0.411,0.345-0.618,0.778-0.618,1.299c0,0.499,0.198,0.923,0.593,1.265 C15.667,100.732,16.247,100.901,17.016,100.901 M11.32,95.001l0.279,2.523c-0.512,0.066-0.891,0.226-1.139,0.486 c-0.248,0.257-0.37,0.599-0.37,1.026c0,0.54,0.248,0.995,0.741,1.371c0.496,0.38,1.519,0.621,3.082,0.725 c-0.766-0.656-1.145-1.475-1.145-2.457c0-1.067,0.414-1.993,1.236-2.768c0.829-0.775,1.899-1.164,3.223-1.164 c1.381,0,2.489,0.411,3.336,1.23c0.844,0.816,1.265,1.861,1.265,3.129c0,1.378-0.534,2.507-1.601,3.396 c-1.067,0.882-2.818,1.324-5.26,1.324c-2.489,0-4.277-0.461-5.379-1.381c-1.098-0.923-1.648-2.122-1.648-3.6 c0-1.064,0.279-1.921,0.844-2.577C9.353,95.61,10.197,95.19,11.32,95.001 M19.169,105.511h2.416v8.906h-1.889 c-0.725-0.734-1.764-1.481-3.119-2.244c-1.352-0.759-2.79-1.337-4.312-1.735c-1.525-0.402-2.887-0.596-4.086-0.59v-2.514 c1.88,0.047,3.794,0.433,5.746,1.167c1.958,0.728,3.7,1.707,5.244,2.931V105.511z M8.179,122.734v-2.605h9.819 c-0.891-0.951-1.55-2.071-1.974-3.364h2.363c0.223,0.678,0.643,1.418,1.261,2.216c0.624,0.797,1.349,1.346,2.178,1.641v2.112 H8.179z M8.179,91.053v-2.605h9.819c-0.891-0.951-1.55-2.074-1.974-3.364h2.363c0.223,0.678,0.643,1.418,1.261,2.216 c0.624,0.797,1.349,1.346,2.178,1.638v2.115H8.179z"/>
      <path d="M200.422,104.1c0.028,0.119-0.009,0.229-0.113,0.336 l-0.245,0.085l-0.389,0.028c-0.728,0-1.516-0.166-2.36-0.499c-0.935-0.373-1.478-0.825-1.632-1.356 c-0.057-0.173-0.088-0.348-0.088-0.53c0-0.37,0.085-0.747,0.245-1.136l0.204-0.543l0.125-0.286l0.157-0.276 c-0.515-0.518-0.882-1.014-1.089-1.494l-0.16-0.559l-0.86,0.245l-0.979,0.245l-0.876,0.113l-0.75,0.072h-1.654h-0.37 c-1.057,0-1.789-0.038-2.187-0.116c-0.398-0.072-0.599-0.254-0.599-0.53c0-0.279,0.706-0.499,2.115-0.665 c1.406-0.173,2.608-0.436,3.603-0.8l2.043-0.791c0.631-0.257,1.127-0.48,1.494-0.659l1.378-0.835l0.703-0.402l0.747,0.386 c0.508,0.279,1.007,0.643,1.494,1.095l-1.105,1.004c-0.794,0.766-1.193,1.378-1.193,1.839c0,0.132,0.031,0.264,0.097,0.386 c0.311,0.49,0.728,0.923,1.252,1.296l1.481,1.048c0,0.264-0.188,0.402-0.559,0.402h-0.348l-0.358,0.025 c-0.113,0.031-0.289,0.191-0.515,0.477c-0.201,0.289-0.304,0.602-0.304,0.951c0,0.204,0.103,0.414,0.314,0.628l0.847,0.402 C200.199,103.792,200.346,103.93,200.422,104.1 M196.298,110.9c0.336-0.05,0.518-0.075,0.549-0.075 c0.235-0.034,0.421-0.094,0.543-0.173c0.706-0.229,1.111-0.571,1.208-1.033c0-0.173-0.182-0.414-0.546-0.719 c-0.367-0.276-0.643-0.414-0.835-0.414c-0.047,0.041-0.26,0.405-0.631,1.108c-0.191,0.609-0.301,1.001-0.32,1.161L196.298,110.9 z M189.905,114.619l-0.17,0.016c-0.301,0-0.863-0.113-1.698-0.342c-0.922-0.26-1.396-0.442-1.434-0.549 c0.057-0.314,0.797-0.781,2.222-1.393l0.904-0.326l0.992-0.308c0.681-0.169,1.462-0.326,2.344-0.468l0.038-0.22l0.088-0.659 c0-0.593,0.041-1.004,0.113-1.236c0.119-0.813,0.399-1.462,0.847-1.943c0.351-0.427,0.659-0.672,0.942-0.731l0.668-0.041 c1.064,0,2.3,0.458,3.709,1.375c1.406,0.923,2.112,1.732,2.112,2.432c0,0.678-0.49,1.277-1.472,1.786 c-0.979,0.515-2.407,0.769-4.274,0.769c-0.85,0-1.663,0.075-2.432,0.22c-0.769,0.141-1.478,0.377-2.118,0.703 c-0.144,0.056-0.273,0.119-0.383,0.188c-0.107,0.063-0.191,0.116-0.251,0.157l-0.446,0.298L189.905,114.619z M191.471,123.933 h-0.499l-0.922,0.013c-1.017,0-1.732-0.053-2.153-0.16c-0.565-0.085-0.847-0.26-0.847-0.53c0-0.182,0.358-0.358,1.076-0.53 c1.359-0.198,2.464-0.386,3.311-0.546c0.85-0.163,1.428-0.308,1.732-0.433c0.65-0.232,1.24-0.461,1.764-0.7 c0.53-0.242,0.976-0.461,1.34-0.665l1.735-1.017l0.333,0.013l0.433,0.113c0.229,0.069,0.421,0.129,0.571,0.176 c0.232,0.085,0.414,0.154,0.546,0.201c0.923,0.333,1.393,0.555,1.422,0.659c0.06,0.138-0.305,0.474-1.083,1.02 c-0.781,0.549-1.873,1.064-3.282,1.553c-0.832,0.245-1.751,0.449-2.749,0.603C193.191,123.855,192.287,123.933,191.471,123.933 M191.471,90.141h-0.499l-0.922,0.016c-1.017,0-1.732-0.056-2.153-0.163c-0.565-0.082-0.847-0.257-0.847-0.527 c0-0.182,0.358-0.361,1.076-0.53c1.359-0.201,2.464-0.389,3.311-0.549c0.85-0.163,1.428-0.304,1.732-0.433 c0.65-0.229,1.24-0.461,1.764-0.7c0.53-0.242,0.976-0.464,1.34-0.662l1.735-1.023l0.333,0.019l0.433,0.113 c0.229,0.066,0.421,0.125,0.571,0.176c0.232,0.082,0.414,0.151,0.546,0.201c0.923,0.333,1.393,0.552,1.422,0.656 c0.06,0.138-0.305,0.477-1.083,1.02c-0.781,0.549-1.873,1.064-3.282,1.553c-0.832,0.248-1.751,0.446-2.749,0.606 C193.191,90.062,192.287,90.141,191.471,90.141"/>
    </g>
  </g>
</svg>
