<?xml version="1.0" encoding="UTF-8"?>
<svg id="Layer_1" data-name="Layer 1" xmlns="http://www.w3.org/2000/svg" xmlns:xlink="http://www.w3.org/1999/xlink" viewBox="0 0 200 134.45">
  <defs>
    <style>
      .cls-1 {
        fill: url(#linear-gradient);
      }

      .cls-2 {
        fill: #fff;
      }

      .cls-3 {
        fill: #212b59;
      }
    </style>
    <linearGradient id="linear-gradient" x1="281.63" y1="-53.14" x2="215.79" y2="-11.05" gradientTransform="translate(-197.5 13.45) scale(1 -1)" gradientUnits="userSpaceOnUse">
      <stop offset="0" stop-color="#facf47"/>
      <stop offset=".34" stop-color="#bbc774"/>
      <stop offset=".64" stop-color="#8dc197"/>
      <stop offset=".87" stop-color="#70bdac"/>
      <stop offset="1" stop-color="#66bcb4"/>
    </linearGradient>
  </defs>
  <g>
    <path class="cls-2" d="M89.74,52.5v12.84c0,1.48-1.2,2.69-2.69,2.69h-13.74c-.37,0-.74-.08-1.08-.23l-53.07-23.38v-23.6h23.6l45.74,29.43c.77.49,1.23,1.34,1.23,2.26h0Z"/>
    <g>
      <path class="cls-3" d="M21.61,111.04v-6.95h-2.45v-1.39h6.33v1.39h-2.43v6.95h-1.45Z"/>
      <path class="cls-3" d="M25.41,111.04v-6.29h1.25l.09.96c.18-.32.44-.57.77-.74.33-.17.72-.26,1.16-.25.19,0,.37,0,.53.03l-.28,1.3c-.07,0-.14,0-.22,0-.57,0-1.03.17-1.39.51-.37.34-.55.91-.55,1.72v2.77h-1.37Z"/>
      <path class="cls-3" d="M32.34,111.12c-.55,0-1.05-.15-1.51-.44-.45-.29-.82-.68-1.1-1.17-.28-.49-.41-1.03-.41-1.61s.14-1.13.41-1.62c.28-.49.64-.88,1.1-1.17.45-.29.96-.44,1.51-.44.46,0,.89.12,1.29.35.4.24.69.55.88.92l.08-1.19h1.25v6.29h-1.25l-.08-1.17c-.19.37-.48.67-.88.9-.4.24-.83.35-1.29.35h0ZM32.58,109.79c.34,0,.66-.09.95-.26.29-.17.52-.4.69-.69s.25-.6.25-.94-.08-.66-.25-.95-.4-.52-.69-.69c-.29-.17-.61-.26-.95-.26s-.66.09-.94.26c-.29.17-.51.4-.68.69-.17.29-.25.6-.25.95s.08.66.25.94.39.51.68.69c.29.17.6.26.94.26Z"/>
      <path class="cls-3" d="M37.25,111.04v-6.29h1.25l.08,1.02c.18-.33.44-.59.75-.8s.69-.31,1.12-.31c.49,0,.93.11,1.31.34.38.23.67.58.88,1.06.21.47.32,1.07.32,1.77v3.2h-1.36v-3.2c0-.41-.07-.75-.2-1.03-.14-.28-.31-.48-.54-.61s-.48-.2-.76-.2-.52.06-.75.19c-.22.13-.41.33-.54.61-.14.28-.21.62-.21,1.03v3.2h-1.36Z"/>
      <path class="cls-3" d="M46.74,111.17c-.51,0-1.03-.09-1.54-.28s-.95-.46-1.29-.82l.92-.89c.21.21.49.39.84.51.35.13.71.19,1.07.19s.64-.06.85-.18c.21-.12.31-.29.31-.51,0-.14-.06-.25-.17-.34-.12-.09-.27-.16-.45-.22-.19-.05-.42-.11-.69-.17-.49-.11-.91-.22-1.24-.35s-.62-.32-.86-.59c-.25-.27-.37-.63-.37-1.08,0-.36.1-.67.29-.95s.48-.49.85-.64c.37-.15.79-.23,1.27-.23s.96.08,1.41.24c.45.16.84.43,1.15.8l-.82.82c-.18-.21-.44-.37-.76-.48s-.64-.16-.94-.16c-.33,0-.6.05-.79.16s-.29.25-.29.44c0,.12.05.22.15.3s.24.15.42.2.4.11.67.16c.5.12.92.23,1.27.35s.64.32.9.6c.26.28.38.65.38,1.1s-.12.81-.34,1.11c-.23.3-.54.52-.92.67-.39.15-.81.22-1.28.22h0Z"/>
      <path class="cls-3" d="M50.36,113.55v-8.8h1.25l.08,1.17c.19-.37.48-.67.88-.9.4-.24.83-.35,1.29-.35.54,0,1.04.15,1.51.44.46.29.83.68,1.1,1.17.27.49.41,1.03.41,1.61s-.14,1.12-.41,1.62c-.27.5-.64.89-1.1,1.18-.46.29-.97.44-1.51.44-.46,0-.88-.12-1.27-.34s-.68-.53-.87-.89v3.66h-1.36ZM53.62,109.79c.34,0,.66-.09.94-.26s.51-.4.69-.69c.17-.29.26-.6.26-.95s-.09-.66-.26-.95-.4-.52-.69-.69c-.29-.17-.6-.25-.94-.25s-.66.08-.95.25-.52.4-.69.69c-.17.29-.26.6-.26.95s.09.66.26.95.4.52.69.69c.29.17.6.26.95.26Z"/>
      <path class="cls-3" d="M60.9,111.13c-.59,0-1.13-.15-1.62-.44-.49-.29-.89-.68-1.17-1.18-.29-.5-.44-1.04-.44-1.62s.15-1.12.44-1.61.68-.89,1.17-1.17c.49-.29,1.03-.44,1.62-.44s1.12.15,1.61.44c.49.29.89.68,1.18,1.17.29.49.44,1.03.44,1.61s-.15,1.12-.44,1.62c-.29.5-.68.89-1.18,1.18-.49.29-1.03.44-1.61.44ZM60.9,109.75c.33,0,.64-.08.92-.25s.5-.39.67-.67c.16-.29.25-.59.25-.93s-.08-.64-.25-.92-.39-.5-.67-.67c-.28-.16-.59-.25-.92-.25s-.66.08-.94.25-.5.39-.67.67-.25.59-.25.92.08.65.25.93c.16.29.39.51.67.67.28.16.59.25.94.25Z"/>
      <path class="cls-3" d="M65.24,111.04v-6.29h1.25l.09.96c.18-.32.44-.57.77-.74.33-.17.72-.26,1.16-.25.19,0,.37,0,.53.03l-.28,1.3c-.07,0-.14,0-.22,0-.57,0-1.03.17-1.39.51-.37.34-.55.91-.55,1.72v2.77h-1.37Z"/>
      <path class="cls-3" d="M72.84,111.15c-.66,0-1.2-.21-1.63-.63-.42-.42-.63-1.07-.63-1.96v-2.59h-.83v-1.21h.88l.18-2.05h1.13v2.05h1.47v1.21h-1.47v2.57c0,.43.1.75.29.97.19.22.46.33.81.33.16,0,.31-.03.45-.08l.34,1.21c-.28.12-.61.18-1,.18h0Z"/>
      <path class="cls-3" d="M82.09,111.19c-.78,0-1.51-.19-2.17-.59-.66-.39-1.18-.91-1.57-1.58-.39-.66-.58-1.38-.58-2.16s.19-1.49.58-2.16c.39-.66.91-1.18,1.57-1.57s1.38-.58,2.17-.58c.68,0,1.32.15,1.91.44s1.09.71,1.5,1.23l-1.29.78c-.25-.3-.57-.55-.94-.72s-.76-.26-1.17-.26c-.52,0-1,.13-1.43.38-.44.25-.78.59-1.03,1.02s-.38.9-.38,1.42.13,1,.38,1.43c.26.44.6.78,1.03,1.03s.91.38,1.43.38c.46,0,.88-.09,1.24-.27.36-.18.66-.44.88-.76s.36-.72.42-1.15h-2.84v-1.32h4.42c.04.21.07.43.07.66,0,.85-.17,1.6-.53,2.25-.35.65-.85,1.17-1.48,1.52-.64.36-1.36.54-2.18.54h0Z"/>
      <path class="cls-3" d="M90.52,111.13c-.62,0-1.19-.15-1.71-.44-.51-.29-.91-.68-1.2-1.18-.29-.49-.44-1.03-.44-1.62s.15-1.12.44-1.61c.29-.49.68-.89,1.17-1.17.49-.29,1.02-.44,1.6-.44s1.15.15,1.63.44c.48.29.87.68,1.15,1.17.28.49.43,1.03.43,1.61,0,.15,0,.35-.03.59h-4.9c.06.26.18.49.35.71s.4.38.66.5.56.18.87.18c.36,0,.67-.06.94-.18s.5-.29.69-.51l1.09.69c-.3.39-.69.7-1.18.92s-1.01.34-1.54.34h0ZM92.16,107.38c-.02-.26-.11-.5-.27-.72s-.37-.4-.63-.53c-.26-.13-.56-.19-.88-.19s-.59.07-.85.19c-.26.13-.46.3-.62.53-.16.22-.25.46-.28.72h3.53Z"/>
      <path class="cls-3" d="M94.66,111.04v-6.29h1.25l.08,1.02c.18-.33.44-.59.75-.8.32-.21.69-.31,1.12-.31.49,0,.93.11,1.31.34s.67.58.88,1.06c.21.47.32,1.07.32,1.77v3.2h-1.36v-3.2c0-.41-.07-.75-.2-1.03-.14-.28-.31-.48-.54-.61s-.48-.2-.76-.2-.52.06-.75.19c-.22.13-.41.33-.54.61s-.21.62-.21,1.03v3.2h-1.36Z"/>
      <path class="cls-3" d="M104.74,111.13c-.62,0-1.19-.15-1.71-.44-.51-.29-.91-.68-1.2-1.18-.29-.49-.44-1.03-.44-1.62s.15-1.12.44-1.61c.29-.49.68-.89,1.17-1.17.49-.29,1.02-.44,1.6-.44s1.15.15,1.63.44c.48.29.87.68,1.15,1.17.28.49.43,1.03.43,1.61,0,.15,0,.35-.03.59h-4.9c.06.26.18.49.35.71s.4.38.66.5.56.18.87.18c.36,0,.67-.06.94-.18s.5-.29.69-.51l1.09.69c-.3.39-.69.7-1.18.92s-1.01.34-1.54.34h0ZM106.39,107.38c-.02-.26-.11-.5-.27-.72-.15-.22-.37-.4-.63-.53-.26-.13-.56-.19-.88-.19s-.59.07-.85.19c-.26.13-.46.3-.62.53s-.25.46-.28.72h3.53Z"/>
      <path class="cls-3" d="M108.88,111.04v-6.29h1.25l.09.96c.18-.32.44-.57.77-.74.33-.17.72-.26,1.16-.25.19,0,.37,0,.53.03l-.28,1.3c-.07,0-.14,0-.22,0-.57,0-1.03.17-1.39.51-.37.34-.55.91-.55,1.72v2.77h-1.37Z"/>
      <path class="cls-3" d="M115.81,111.12c-.55,0-1.05-.15-1.51-.44-.45-.29-.82-.68-1.1-1.17-.28-.49-.41-1.03-.41-1.61s.14-1.13.41-1.62c.28-.49.64-.88,1.1-1.17.45-.29.96-.44,1.51-.44.46,0,.89.12,1.29.35.4.24.69.55.88.92l.08-1.19h1.25v6.29h-1.25l-.08-1.17c-.19.37-.48.67-.88.9-.4.24-.83.35-1.29.35h0ZM116.05,109.79c.34,0,.66-.09.95-.26.29-.17.52-.4.69-.69.17-.29.25-.6.25-.94s-.08-.66-.25-.95-.4-.52-.69-.69c-.29-.17-.61-.26-.95-.26s-.66.09-.94.26c-.29.17-.51.4-.68.69-.17.29-.25.6-.25.95s.08.66.25.94.39.51.68.69c.29.17.6.26.94.26Z"/>
      <path class="cls-3" d="M120.72,111.04v-8.91h1.36v8.91h-1.36Z"/>
      <path class="cls-3" d="M126.02,111.04l2.96-8.34h1.57l2.96,8.34h-1.59l-.67-1.93h-2.96l-.67,1.93h-1.59ZM128.69,107.76h2.15l-1.09-3.09-1.06,3.09h0Z"/>
      <path class="cls-3" d="M136.57,111.13c-.5,0-.94-.12-1.32-.34s-.67-.58-.88-1.06c-.21-.47-.32-1.07-.32-1.77v-3.2h1.36v3.2c0,.41.07.75.2,1.03s.31.48.54.61c.22.14.48.2.76.2s.54-.07.76-.2c.22-.14.41-.34.54-.61s.2-.62.2-1.03v-3.2h1.36v6.29h-1.25l-.08-1.02c-.18.33-.44.59-.76.8-.32.21-.69.31-1.1.31h0Z"/>
      <path class="cls-3" d="M143.71,111.15c-.66,0-1.2-.21-1.63-.63-.42-.42-.63-1.07-.63-1.96v-2.59h-.83v-1.21h.88l.18-2.05h1.13v2.05h1.47v1.21h-1.47v2.57c0,.43.1.75.29.97.19.22.46.33.81.33.16,0,.31-.03.45-.08l.34,1.21c-.28.12-.61.18-1,.18h0Z"/>
      <path class="cls-3" d="M145.62,111.04v-8.91h1.36v3.61c.18-.32.43-.58.75-.78.31-.2.68-.29,1.09-.29.49,0,.93.11,1.31.34.38.23.67.58.88,1.06.21.47.32,1.07.32,1.77v3.2h-1.36v-3.2c0-.41-.07-.75-.2-1.03-.14-.28-.31-.48-.54-.61s-.48-.2-.76-.2-.52.06-.75.19c-.22.13-.41.33-.54.61-.14.28-.21.62-.21,1.03v3.2h-1.36Z"/>
      <path class="cls-3" d="M155.59,111.13c-.59,0-1.13-.15-1.62-.44-.49-.29-.89-.68-1.17-1.18-.29-.5-.44-1.04-.44-1.62s.15-1.12.44-1.61.68-.89,1.17-1.17c.49-.29,1.03-.44,1.62-.44s1.12.15,1.61.44c.49.29.89.68,1.18,1.17.29.49.44,1.03.44,1.61s-.15,1.12-.44,1.62c-.29.5-.68.89-1.18,1.18-.49.29-1.03.44-1.61.44ZM155.59,109.75c.33,0,.64-.08.92-.25.28-.16.5-.39.67-.67s.25-.59.25-.93-.08-.64-.25-.92-.39-.5-.67-.67c-.28-.16-.59-.25-.92-.25s-.66.08-.94.25c-.28.16-.5.39-.67.67s-.25.59-.25.92.08.65.25.93.39.51.67.67c.28.16.59.25.94.25Z"/>
      <path class="cls-3" d="M159.92,111.04v-6.29h1.25l.09.96c.18-.32.44-.57.77-.74.33-.17.72-.26,1.16-.25.19,0,.37,0,.53.03l-.28,1.3c-.07,0-.14,0-.22,0-.57,0-1.03.17-1.39.51-.37.34-.55.91-.55,1.72v2.77h-1.37Z"/>
      <g>
        <rect class="cls-3" x="164.57" y="102.7" width="1.42" height="1.42"/>
        <rect class="cls-3" x="164.6" y="104.75" width="1.36" height="6.29"/>
      </g>
      <path class="cls-3" d="M169.91,111.15c-.66,0-1.2-.21-1.63-.63-.42-.42-.63-1.07-.63-1.96v-2.59h-.83v-1.21h.88l.18-2.05h1.13v2.05h1.47v1.21h-1.47v2.57c0,.43.1.75.29.97.19.22.46.33.81.33.16,0,.31-.03.45-.08l.34,1.21c-.28.12-.61.18-1,.18h0Z"/>
      <path class="cls-3" d="M172.51,113.64c-.23,0-.44-.02-.62-.06s-.38-.1-.57-.17l.39-1.21c.1.04.22.08.36.11s.27.04.38.04c.21,0,.4-.06.57-.17.17-.12.33-.27.47-.47s.27-.46.39-.78c0-.01,0-.02,0-.03,0,0,0-.01,0-.02l-2.47-6.13h1.46l1.62,4.27,1.6-4.27h1.44l-2.3,6.29c-.24.64-.48,1.15-.74,1.52s-.55.65-.88.82c-.32.17-.7.26-1.13.26h0Z"/>
    </g>
    <g>
      <polygon class="cls-3" points="103.96 68.32 110.52 68.32 110.52 39.16 118.18 39.16 118.18 32.61 96.3 32.61 96.3 39.16 103.96 39.16 103.96 68.32"/>
      <path class="cls-3" d="M134.51,52.42l5.75,3.7v.27c0,3.48-2.83,6.31-6.31,6.31s-6.31-2.83-6.31-6.31v-11.86c0-3.48,2.83-6.31,6.31-6.31,3.29,0,6,2.53,6.29,5.75h6.57c-.29-6.83-5.95-12.31-12.85-12.31s-12.86,5.77-12.86,12.86v11.86c0,7.09,5.77,12.86,12.86,12.86s12.86-5.77,12.86-12.86v-7.11h-12.31v3.14h0Z"/>
      <path class="cls-3" d="M168.71,59.67l2.32,8.65h6.51l-9.57-35.71h-10.08l-9.57,35.71h6.51l2.32-8.65h11.55ZM162.94,38.12l4.02,15h-8.04l4.02-15Z"/>
    </g>
    <path class="cls-3" d="M60.34,90.36c0,1.41-.55,2.12-1.66,2.12h-.75c-1.1,0-1.66-.71-1.66-2.12v-12.22h-1.99v12.22c0,1.41-.55,2.12-1.66,2.12h-.8c-1.1,0-1.66-.71-1.66-2.12v-6.35h-1.99v6.35c0,1.41-.55,2.12-1.66,2.12h-2.24v-3.08c0-1.52-.5-2.8-1.51-3.83s-2.25-1.55-3.73-1.55-2.63.48-3.61,1.45c-.98.96-1.47,2.12-1.47,3.48,0,.73.16,1.4.49,2.02.33.62.77,1.13,1.33,1.52h-3.73c-1.1,0-1.66-.71-1.66-2.12v-12.22h-1.99v14.97c0,1.26-.35,2.26-1.04,3.02-.69.75-1.56,1.13-2.59,1.13s-1.88-.38-2.57-1.13-1.04-1.76-1.04-3.02v-7h-2.01v7c0,1.8.54,3.28,1.62,4.42s2.41,1.72,3.99,1.72c1.48,0,2.75-.5,3.81-1.51,1.05-1.01,1.65-2.34,1.79-3.98.41.49.96.73,1.68.73h14.47c1.17,0,2.06-.47,2.66-1.43.57.95,1.46,1.43,2.64,1.43h.8c1.17,0,2.06-.47,2.66-1.43.57.95,1.46,1.43,2.64,1.43h.75c1.13,0,2.03-.38,2.68-1.13s.99-1.76.99-3v-12.22h-2.01v12.22h0ZM42.27,92.48h-3.23c-.89,0-1.66-.31-2.29-.94s-.94-1.39-.94-2.29.31-1.66.94-2.3c.63-.64,1.39-.95,2.29-.95s1.66.31,2.29.94.94,1.4.94,2.31v3.23ZM86.9,84.01c-1.44,0-2.67.51-3.7,1.53s-1.54,2.26-1.54,3.71c0,.67.15,1.29.46,1.86.31.57.72,1.03,1.24,1.37h-3.33c-1.09,0-1.63-.71-1.63-2.12v-6.35h-4.99c-1.44,0-2.67.51-3.69,1.53-1.03,1.02-1.55,2.26-1.55,3.71s.51,2.69,1.53,3.71,2.26,1.53,3.71,1.53c1.65,0,2.91-.66,3.77-1.97.46,1.32,1.41,1.97,2.85,1.97h6.88c1.46,0,2.69-.51,3.71-1.53s1.53-2.26,1.53-3.71-.51-2.69-1.54-3.71c-1.03-1.02-2.26-1.53-3.7-1.53h0ZM76.38,89.25c0,.98-.29,1.76-.85,2.35-.57.59-1.28.88-2.13.88-.89,0-1.66-.31-2.29-.94s-.94-1.39-.94-2.29.31-1.66.94-2.3,1.39-.95,2.29-.95h2.98v3.25h0ZM89.18,91.54c-.63.63-1.39.94-2.29.94s-1.66-.31-2.29-.94-.94-1.39-.94-2.29.31-1.66.94-2.3,1.39-.95,2.29-.95,1.66.32,2.29.95c.63.64.94,1.4.94,2.3s-.31,1.66-.94,2.29ZM115.68,90.36c0,1.41-.55,2.12-1.66,2.12h-5.18c.6-.64,1.03-1.11,1.29-1.42.26-.3.59-.72,1.01-1.26s.71-1.03.88-1.49.26-.9.26-1.33c0-1.98-1.4-2.98-4.19-2.98h-7.88v3.5l3.33,4.97h-5.01c-1.1,0-1.66-.71-1.66-2.12v-12.22h-1.99v12.22c0,1.24.32,2.24.98,3,.65.75,1.54,1.13,2.67,1.13h15.49c1.13,0,2.03-.38,2.68-1.13s.99-1.76.99-3v-12.22h-2.01v12.22ZM108,90.91c-.16.18-.41.45-.73.8-.33.35-.57.61-.73.77h-.63l-3.36-5.07v-1.41h4.84c.91,0,1.58.11,2.01.32.44.22.65.64.65,1.27,0,.18-.03.37-.09.57-.06.2-.17.41-.31.65-.15.24-.29.45-.42.65-.14.2-.33.44-.6.73s-.48.53-.64.71h0ZM121.19,78.15h1.99v16.35h-1.99v-16.35h0ZM170.03,90.37c0,1.41-.55,2.12-1.66,2.12h-2.16v-3.29c0-1.46-.51-2.69-1.54-3.71-1.03-1.02-2.27-1.53-3.74-1.53h-4.34v8.53h-3.02c-1.1,0-1.66-.71-1.66-2.12v-6.35h-2.01v6.35c0,1.41-.55,2.12-1.63,2.12h-1.45c-1.09,0-1.63-.71-1.63-2.12v-6.35h-2.01v6.35c0,1.41-.55,2.12-1.66,2.12h-.75c-1.09,0-1.63-.71-1.63-2.12v-6.35h-4.99c-1.44,0-2.67.51-3.69,1.53-1.03,1.02-1.55,2.26-1.55,3.71s.51,2.69,1.53,3.71c1.02,1.02,2.26,1.53,3.71,1.53,1.65,0,2.91-.66,3.77-1.97.46,1.32,1.41,1.97,2.85,1.97h.75c1.2,0,2.09-.47,2.66-1.43.58.95,1.46,1.43,2.64,1.43h1.45c1.19,0,2.07-.47,2.64-1.43.57.95,1.46,1.43,2.66,1.43h3.04c.1,1.62.58,2.89,1.45,3.81.87.91,1.98,1.37,3.33,1.37s2.46-.46,3.36-1.39,1.38-2.19,1.45-3.79h2.18c1.13,0,2.03-.38,2.68-1.13s.99-1.76.99-3v-12.22h-2.01v12.22h0ZM137.12,89.26c0,.98-.29,1.76-.85,2.35-.57.59-1.28.88-2.13.88-.89,0-1.66-.31-2.29-.94s-.94-1.39-.94-2.29.31-1.66.94-2.3c.63-.64,1.39-.95,2.29-.95h2.98v3.25h0ZM164.21,94.37c0,1.03-.27,1.86-.81,2.46-.54.61-1.2.91-2,.91s-1.46-.28-1.95-.83-.77-1.36-.84-2.42h1.74c.85,0,1.62-.16,2.3-.49.68-.33,1.2-.76,1.56-1.31v1.68h0ZM163.22,91.57c-.66.61-1.5.91-2.54.91h-2.1v-6.54h2.35c.91,0,1.68.32,2.32.95s.95,1.4.95,2.3c0,.98-.33,1.77-.99,2.38h0ZM177.54,78.15v16.35h-1.99v-16.35h1.99ZM133.95,82.59h-2.16v-2.16h2.16v2.16ZM137.12,82.59h-2.16v-2.16h2.16v2.16ZM148.25,96.51h2.16v2.16h-2.16v-2.16ZM151.42,96.51h2.16v2.16h-2.16v-2.16ZM73.2,82.59h-2.16v-2.16h2.16v2.16ZM76.38,82.59h-2.16v-2.16h2.16v2.16ZM38.84,82.59h-2.16v-2.16h2.16v2.16ZM42.01,82.59h-2.16v-2.16h2.16v2.16ZM50.27,82.59h-2.16v-2.16h2.16v2.16Z"/>
    <path class="cls-3" d="M146,82.59h-3.81v-.88h.88c-.27-.29-.4-.64-.4-1.05,0-.46.16-.85.49-1.17.33-.31.73-.47,1.23-.47.55,0,1.02.21,1.41.63l-.61.59c-.18-.24-.44-.36-.75-.36-.25,0-.47.08-.65.25-.18.17-.27.38-.27.63s.09.47.27.66c.18.19.4.29.65.29h1.57v.88h0Z"/>
  </g>
  <path class="cls-1" d="M60.41,32.16l28.1,18.08c.77.49,1.23,1.34,1.23,2.26v12.84c0,1.48-1.2,2.69-2.69,2.69h-2.44l-50.48-23.59,26.27-12.28h0ZM19.17,37.44v-16.63h12.46v3.31h1.49v-3.31h9.65l16.16,10.4-26.55,12.41s-13.21-6.17-13.21-6.17ZM37.51,36.05l-3.98-4.56c-.14-.16-.35-.26-.56-.26h-1.17c-.21,0-.42.09-.56.26l-3.98,4.56,1.12.98,3.26-3.74v7.03h1.49v-7.03l3.26,3.74,1.12-.98h0ZM27.24,24.2l2.92,2.85c.14.14.32.21.52.21h3.39c.19,0,.38-.08.52-.21l2.92-2.85-1.04-1.06-2.7,2.64h-2.79l-2.7-2.64-1.04,1.06h0ZM23.82,28.82l5.06.87-4.79,3.7.91,1.18,5.93-4.58h2.89l5.93,4.58.91-1.18-4.79-3.7,5.06-.87-.25-1.47-6.67,1.15h-3.27l-6.67-1.15-.25,1.47h0ZM32.38,45.25l-5.48,2.56,45.34,19.97c.34.15.71.23,1.08.23h7.77s-48.72-22.76-48.72-22.76ZM19.17,39.08v5.33l5.92,2.61,5.54-2.59-11.45-5.35h0Z"/>
</svg>